<svg width="1073" height="176" viewBox="0 0 1073 176" xmlns="http://www.w3.org/2000/svg"><title>ccn_identity--small</title><g fill="none" fill-rule="evenodd"><path d="M206 90v-3c0-4.155 1.5-6.953 5-9l37-21c4.09-2.498 7-.066 7 6v4c0 4.41-1.595 7.45-5 9l-19 12v1l19 12c3.405 1.43 5 4.47 5 9v4c0 6.068-2.91 8.5-7 6l-37-21c-3.5-1.923-5-4.842-5-9M110 9c33.47 0 64.495 11.697 93 33 3.76 2.408 5 6.202 5 12v5c0 7.854-3.722 10.7-9 7-28.23-18.747-58.012-29.18-89-29-33.79-.18-67.296 9.62-98 30-6.028 3.016-10 .17-10-8v-5c0-5.798 1.49-9.275 5-12C36.002 21.646 72.24 9 110 9M100 167c-33.47 0-64.494-11.697-93-33-3.76-2.408-5-6.202-5-12v-5c0-7.854 3.723-10.7 9-7 28.23 18.746 58.013 29.18 89 29 33.79.18 67.296-9.62 98-30 6.03-3.016 10-.17 10 8v5c0 5.798-1.49 9.275-5 12-29.002 20.354-65.238 33-103 33" fill="#28C499"/><path d="M57 84c0-5.276 2.75-8 8-8h10c5.25 0 8 2.724 8 8v10c0 5.276-2.75 8-8 8H65c-5.25 0-8-2.724-8-8V84M128 84c0-5.276 2.75-8 8-8h10c5.25 0 8 2.724 8 8v10c0 5.276-2.75 8-8 8h-10c-5.25 0-8-2.724-8-8V84M344 110c3.65-.166 6.734-.77 9-2 2.903-1.186 5.604-3.116 8-6l7 7c-6.4 7.376-14.314 11-24 11-8.933 0-16.656-3.005-23-9-5.93-6.028-9-13.63-9-23 0-9.017 3.127-16.678 9-23 6.638-5.936 14.537-9 24-9 9.625 0 17.598 3.536 24 11l-7 7c-2.544-2.972-5.32-4.947-8-6-2.546-1.186-5.615-1.746-9-2-6.365.254-11.592 2.273-16 6-4.05 4.346-6.164 9.503-6 16-.164 6.055 1.936 11.3 6 16 4.335 3.727 9.312 5.834 15 6zm54 2c4.345 0 7.932-1.44 11-4 2.586-3.2 4-6.927 4-11 0-5.073-1.414-8.8-4-12-3.068-2.56-6.655-4-11-4s-7.932 1.44-11 4c-2.586 3.2-4 6.927-4 12 0 4.073 1.414 7.8 4 11 3.068 2.56 6.655 4 11 4zm0 8c-7.5 0-13.333-2.32-18-7-4.667-4.606-7-10.285-7-17s2.333-12.394 7-17c4.667-4.68 10.5-7 18-7 6.5 0 12.333 2.32 17 7 4.667 4.606 7 10.285 7 17s-2.333 12.394-7 17c-4.667 4.68-10.5 7-17 7zm38-7c-4.794-4.147-7-10.013-7-17 0-7.563 2.265-13.37 7-18 4.324-4.053 9.72-6.224 16-6 6.25-.224 11.294 2.416 15 8V54h10v65h-10v-7c-3.53 5.42-8.853 8-16 8-5.794 0-10.97-2.23-15-7zm7-6c3.1 2.587 6.435 4 10 4 4.087 0 7.333-1.428 10-4 2.667-3.14 4-6.804 4-11 0-4.754-1.333-8.493-4-11-2.667-3.5-5.942-5-10-5-3.71 0-7.043 1.5-10 5-2.61 2.507-4 6.26-4 11 0 4.27 1.42 7.934 4 11zm90-7h-36c-.03 3.68 1.507 6.41 4 8 3.188 2.555 6.435 3.59 10 4 5.884-.41 10.29-2.248 13-6l6 6c-5.116 5.4-11.61 8-20 8-6.1 0-11.623-2.175-16-7-4.725-3.876-7-9.715-7-17 0-7.372 2.32-13.197 7-18 4.594-3.84 10.058-6 16-6 6.638 0 11.985 1.912 16 6 4.797 3.562 7 8.832 7 16v6zm-36-8h27c0-3.856-1.24-6.82-4-9-2.197-1.964-5.25-3-9-3-3.51 0-6.77 1.08-10 3-2.554 2.396-4 5.317-4 9zm76 18c3.65-.166 6.734-.77 9-2 2.903-1.186 5.604-3.116 8-6l7 7c-6.4 7.376-14.314 11-24 11-8.933 0-16.656-3.005-23-9-5.93-6.028-9-13.63-9-23 0-9.017 3.127-16.678 9-23 6.638-5.936 14.537-9 24-9 9.625 0 17.598 3.536 24 11l-7 7c-2.544-2.972-5.32-4.947-8-6-2.546-1.186-5.615-1.746-9-2-6.365.254-11.592 2.273-16 6-4.05 4.346-6.164 9.503-6 16-.164 6.055 1.936 11.3 6 16 4.335 3.727 9.312 5.834 15 6zm54 2c4.345 0 7.932-1.44 11-4 2.586-3.2 4-6.927 4-11 0-5.073-1.414-8.8-4-12-3.068-2.56-6.655-4-11-4s-7.932 1.44-11 4c-2.586 3.2-4 6.927-4 12 0 4.073 1.414 7.8 4 11 3.068 2.56 6.655 4 11 4zm0 8c-7.5 0-13.333-2.32-18-7-4.667-4.606-7-10.285-7-17s2.333-12.394 7-17c4.667-4.68 10.5-7 18-7 6.5 0 12.333 2.32 17 7 4.667 4.606 7 10.285 7 17s-2.333 12.394-7 17c-4.667 4.68-10.5 7-17 7zm38-7c-4.794-4.147-7-10.013-7-17 0-7.563 2.265-13.37 7-18 4.324-4.053 9.72-6.224 16-6 6.25-.224 11.294 2.416 15 8V54h10v65h-10v-7c-3.53 5.42-8.853 8-16 8-5.794 0-10.97-2.23-15-7zm7-6c3.1 2.587 6.435 4 10 4 4.087 0 7.333-1.428 10-4 2.667-3.14 4-6.804 4-11 0-4.754-1.333-8.493-4-11-2.667-3.5-5.942-5-10-5-3.71 0-7.043 1.5-10 5-2.61 2.507-4 6.26-4 11 0 4.27 1.42 7.934 4 11zm90-7h-36c-.03 3.68 1.507 6.41 4 8 3.188 2.555 6.435 3.59 10 4 5.884-.41 10.29-2.248 13-6l6 6c-5.116 5.4-11.61 8-20 8-6.1 0-11.623-2.175-16-7-4.725-3.876-7-9.715-7-17 0-7.372 2.32-13.197 7-18 4.594-3.84 10.058-6 16-6 6.638 0 11.985 1.912 16 6 4.797 3.562 7 8.832 7 16v6zm-36-8h27c0-3.856-1.24-6.82-4-9-2.197-1.964-5.25-3-9-3-3.51 0-6.77 1.08-10 3-2.554 2.396-4 5.317-4 9zm112-34h14v62h-14l-29-39v39h-14V58h13l30 40V58zm27 0h14v62h-14V58zm71 0h14v62h-14l-29-39v39h-14V58h13l30 40V58zm30 12V58h32v40c0 7.43-1.91 12.913-6 17-3.556 3.183-8.46 5-14 5-7.91 0-14.43-2.843-20-9l7-9c3.933 3.607 7.844 5.6 12 6 1.89-.4 3.563-1.148 5-3 1.348-1.138 2.044-3.38 2-6V70h-18zm88 50l-5-13h-26l-5 13h-15l26-62h14l26 62h-15zm-18-44l-8 18h15l-7-18z" fill="#FFF"/></g></svg>